<svg xmlns="http://www.w3.org/2000/svg" width="75" height="27" viewBox="0 0 75 27">
    <g fill="none" fill-rule="evenodd">
        <g fill-rule="nonzero">
            <g>
                <g>
                    <path fill="#2FABF7" d="M6.489 6.489L8.923 6.489 7.706 3.245z" transform="translate(-950 -2007) translate(0 1980) translate(950 27.4)"/>
                    <path fill="#228FE0" d="M38.598 3.346c-.208-.101-.52-.101-.83-.101h-2.076v1.622h2.075c.312 0 .623 0 .83-.101.208-.102.312-.406.312-.71.104-.406-.104-.609-.311-.71z" transform="translate(-950 -2007) translate(0 1980) translate(950 27.4)"/>
                    <path fill="#0571C1" d="M63.655 0v1.475L62.95 0h-5.53v1.475L56.713 0h-7.53c-1.295 0-2.354.246-3.295.737V0h-5.295v.737C40.005.246 39.3 0 38.358 0H19.414L18.12 3.073 16.826 0h-6.001v1.475L10.119 0h-5.06L2.706 5.777 0 12.167H6.001l.706-1.966h1.647l.706 1.967h6.824v-1.475l.589 1.475h3.412l.588-1.475v1.475h16.355V8.972h.236c.235 0 .235 0 .235.369v2.704h8.472v-.738c.706.369 1.764.738 3.176.738h3.53l.706-1.967h1.648l.705 1.967h6.825V10.2l1.059 1.844h5.53V0h-5.295zm-39.77 10.324h-2v-6.76l-2.824 6.76h-1.765l-2.824-6.76v6.76h-4L9.648 8.48h-4l-.706 1.967H2.706l3.53-8.726h2.942l3.294 8.234V1.721h3.177l2.589 5.9 2.353-5.9h3.294v8.603zm8.001-6.76h-4.588v1.598h4.47v1.72h-4.47v1.721h4.588v1.844h-6.589V1.721h6.59v1.843zm8.825 3.565c.235.491.353.86.353 1.597v1.721h-2V9.341c0-.492 0-1.23-.353-1.72-.353-.37-.706-.37-1.412-.37H35.18v3.196h-2V1.721h4.47c1.06 0 1.766 0 2.354.368.588.37.941.984.941 1.967 0 1.352-.823 2.09-1.412 2.335.589.123.942.492 1.177.738zm3.53 3.195h-2V1.598h2v8.726zm23.18 0h-2.825L60.831 3.81v6.514h-4l-.706-1.844h-4.118l-.706 1.967h-2.236c-.941 0-2.118-.246-2.824-.983-.706-.738-1.059-1.721-1.059-3.319 0-1.229.236-2.458 1.06-3.441.587-.738 1.646-.983 2.94-.983h1.883v1.843h-1.882c-.706 0-1.06.123-1.53.492-.353.369-.588 1.106-.588 1.966 0 .984.117 1.598.588 2.09.353.368.824.491 1.412.491h.824l2.706-6.76h2.941l3.295 8.235V1.844h2.942l3.412 6.022V1.844h2v8.48h.235z" transform="translate(-950 -2007) translate(0 1980) translate(950 27.4)"/>
                    <g fill="#228FE0">
                        <path d="M23.214 3.321L25.928 3.321 24.63.029zM3.156 20.25L3.156 13.549.088 16.841z" transform="translate(-950 -2007) translate(0 1980) translate(950 27.4) translate(29.202 3.245)"/>
                    </g>
                    <path fill="#2FABF7" d="M20.279 17.846L20.279 19.352 24.781 19.352 24.781 20.975 20.279 20.975 20.279 22.713 25.268 22.713 27.58 20.279 25.39 17.846z" transform="translate(-950 -2007) translate(0 1980) translate(950 27.4)"/>
                    <path fill="#228FE0" d="M37.542 17.035h-2.661v2.433h2.788c.76 0 1.267-.405 1.267-1.217-.126-.81-.633-1.216-1.394-1.216z" transform="translate(-950 -2007) translate(0 1980) translate(950 27.4)"/>
                    <path fill="#0571C1" d="M74.033 19.32v-5.53h-4.995c-1.071 0-1.904.246-2.498.737v-.737h-5.472c-.833 0-1.903.246-2.38.737v-.737h-9.634v.737c-.714-.614-2.022-.737-2.617-.737h-6.423v.737c-.595-.614-2.023-.737-2.736-.737H30.14l-1.666 1.844-1.546-1.844H16.224v12.045H26.69l1.665-1.844 1.547 1.844h6.423v-2.827h.833c.832 0 1.903 0 2.736-.369v3.319h5.352v-3.196h.238c.357 0 .357 0 .357.369v2.827H62.02c1.071 0 2.142-.246 2.736-.738v.738h5.115c1.07 0 2.141-.123 2.855-.615 1.19-.737 1.903-2.09 1.903-3.687 0-.86-.238-1.72-.595-2.335zM37.16 21.288h-2.38v2.95h-3.806l-2.379-2.827-2.498 2.827h-7.85v-8.726h7.97l2.378 2.826 2.498-2.826h6.305c1.546 0 3.33.491 3.33 2.826-.119 2.459-1.784 2.95-3.568 2.95zm11.895-.491c.238.368.357.86.357 1.597v1.721h-2.022v-1.106c0-.492 0-1.352-.357-1.72-.238-.37-.714-.37-1.428-.37h-2.14v3.196H41.44v-8.726h4.52c.952 0 1.784 0 2.38.368.594.37 1.07.984 1.07 1.967 0 1.352-.833 2.09-1.428 2.335.595.246.952.492 1.07.738zm8.207-3.565h-4.639v1.598h4.52v1.72h-4.52v1.721h4.64v1.844H50.6v-8.726h6.661v1.843zm4.996 6.883h-3.806V22.27h3.806c.357 0 .595 0 .833-.245.119-.123.238-.37.238-.615 0-.246-.12-.491-.238-.614-.119-.123-.357-.246-.714-.246-1.903-.123-4.163 0-4.163-2.704 0-1.23.714-2.581 2.855-2.581h3.925v2.09h-3.687c-.357 0-.595 0-.833.122-.238.123-.238.369-.238.615 0 .368.238.491.476.614s.476.123.714.123h1.07c1.07 0 1.784.246 2.26.738.357.368.595.983.595 1.843 0 1.844-1.07 2.704-3.093 2.704zm10.23-.86c-.476.491-1.308.86-2.498.86h-3.806V22.27h3.806c.357 0 .595 0 .833-.245.119-.123.238-.37.238-.615 0-.246-.12-.491-.238-.614-.12-.123-.357-.246-.714-.246-1.903-.123-4.163 0-4.163-2.704 0-1.23.714-2.581 2.855-2.581h3.925v2.09h-3.569c-.356 0-.594 0-.832.122-.238.123-.238.369-.238.615 0 .368.119.491.476.614.238.123.476.123.713.123h1.071c1.07 0 1.784.246 2.26.738.119 0 .119.122.119.122.357.492.476 1.107.476 1.721 0 .738-.238 1.352-.714 1.844z" transform="translate(-950 -2007) translate(0 1980) translate(950 27.4)"/>
                    <path fill="#228FE0" d="M46.71 17.947c-.208-.101-.52-.101-.831-.101h-2.076v1.622h2.076c.311 0 .623 0 .83-.101.208-.102.312-.406.312-.71.103-.406-.104-.608-.312-.71z" transform="translate(-950 -2007) translate(0 1980) translate(950 27.4)"/>
                    <g fill="#228FE0">
                        <path d="M8.938.5c-.236-.118-.59-.118-.944-.118h-2.36v1.881h2.36c.354 0 .708 0 .944-.117.236-.118.354-.47.354-.823C9.41.853 9.174.617 8.938.5zM23.214 3.321L25.928 3.321 24.63.029zM3.156 20.25L3.156 13.549.088 16.841z" transform="translate(-950 -2007) translate(0 1980) translate(950 27.4) translate(29.202 3.245)"/>
                    </g>
                    <path fill="#228FE0" d="M37.542 17.035h-2.661v2.433h2.788c.76 0 1.267-.405 1.267-1.217-.126-.81-.633-1.216-1.394-1.216zM46.71 17.947c-.208-.101-.52-.101-.831-.101h-2.076v1.622h2.076c.311 0 .623 0 .83-.101.208-.102.312-.406.312-.71.103-.406-.104-.608-.312-.71z" transform="translate(-950 -2007) translate(0 1980) translate(950 27.4)"/>
                    <g fill="#2FABF7">
                        <path d="M36.385 24.029L34.737 22.249 34.737 24.267 30.851 24.267 28.496 21.537 25.905 24.267 18.134 24.267 18.134 15.96 26.023 15.96 28.496 18.689 29.673 17.266 26.73 14.299 16.367 14.299 16.367 25.928 26.73 25.928 28.496 24.148 30.027 25.928 36.385 25.928zM24.139 11.688L22.608 10.027 21.902 10.027 21.902 9.315 20.135 7.535 18.958 10.027 17.309 10.027 14.483 3.501 14.483 10.027 10.48 10.027 9.656 8.247 5.652 8.247 4.828 10.027 2.708 10.027 6.241 1.721 9.185 1.721 12.482 9.671 12.482 1.721 14.248 1.721 12.599.059 10.833.059 10.833 1.483 10.244.059 5.063.059 2.708 5.637 0 11.688 2.708 11.688 6.123 11.688 6.83 9.908 8.478 9.908 9.302 11.688 15.896 11.688 15.896 10.264 16.485 11.688 19.9 11.688 20.489 10.264 20.489 11.688z" transform="translate(-950 -2007) translate(0 1980) translate(950 27.4)"/>
                        <path d="M18.722 6.23L16.838 4.331 18.251 7.416z" transform="translate(-950 -2007) translate(0 1980) translate(950 27.4)"/>
                    </g>
                    <g fill="#228FE0">
                        <path d="M61.02 24.54c1.065-.694 1.776-1.85 1.894-3.122l-1.658-1.619c.119.347.237.694.237 1.156 0 .694-.237 1.272-.71 1.735-.474.462-1.303.809-2.487.809h-3.79v-1.734h3.79c.355 0 .592 0 .829-.232.118-.115.236-.346.236-.578 0-.23-.118-.462-.236-.578-.119-.115-.356-.23-.711-.23-1.895-.117-4.145 0-4.145-2.544 0-1.157.71-2.197 2.487-2.428l-1.303-1.272c-.236.115-.355.231-.473.231v-.694h-5.448c-.829 0-1.895.232-2.369.694v-.694h-9.71v.694c-.711-.578-2.014-.694-2.606-.694h-6.395v.694c-.592-.578-2.013-.694-2.724-.694h-7.105l-1.658 1.735-1.54-1.735h-1.303l3.553 3.469 1.777-1.85h6.276c1.54 0 3.316.462 3.316 2.66 0 2.311-1.658 2.774-3.434 2.774H23.24v1.734l1.777 1.734v-1.734h.592c.829 0 1.895 0 2.724-.347v3.122h5.329v-3.006h.237c.355 0 .355 0 .355.347v2.659h16.106c1.066 0 2.132-.231 2.724-.694v.694h5.092c.948.116 2.013 0 2.842-.463zm-23.568-4.163c.237.347.356.81.356 1.503V23.5h-2.013v-1.04c0-.463 0-1.272-.356-1.62-.237-.346-.71-.346-1.42-.346h-2.133v3.006h-2.013V15.29h4.5c.948 0 1.777 0 2.369.347.592.347 1.066.925 1.066 1.85 0 1.272-.83 1.965-1.421 2.197.592.23.947.462 1.065.693zm8.172-3.353h-4.619v1.503h4.5v1.62h-4.5v1.618h4.619v1.734h-6.632V15.29h6.632v1.734zm4.974 6.475h-3.79v-1.734h3.79c.355 0 .592 0 .829-.232.118-.115.237-.346.237-.578 0-.23-.119-.462-.237-.578-.119-.115-.355-.23-.71-.23-1.896-.117-4.146 0-4.146-2.544 0-1.157.71-2.428 2.843-2.428h3.908v1.965H49.65c-.355 0-.592 0-.829.116-.236.115-.236.347-.236.578 0 .347.236.462.473.578.237.115.474.115.71.115h1.067c1.066 0 1.776.232 2.25.694.355.347.592.925.592 1.734 0 1.735-1.066 2.544-3.08 2.544z" transform="translate(-950 -2007) translate(0 1980) translate(950 27.4) translate(11.356)"/>
                        <path d="M56.282 17.834c0 .347.119.462.474.578.237.115.474.115.71.115h1.066c.711 0 1.185.116 1.658.347l-1.776-1.734h-1.066c-.355 0-.592 0-.829.116-.118.115-.237.347-.237.578zM52.137 10.897L52.374 11.244 52.493 11.244zM45.624 4.538L47.637 9.278 47.637 6.503z" transform="translate(-950 -2007) translate(0 1980) translate(950 27.4) translate(11.356)"/>
                        <path d="M25.373 8.353h.237c.237 0 .237 0 .237.347v2.544h8.526v-.694c.71.347 1.777.694 3.198.694h3.553l.71-1.85h1.658l.71 1.85h6.87v-1.157L49.414 8.47V9.74h-4.027l-.592-1.85H40.65l-.71 1.85h-2.25c-.948 0-2.132-.232-2.843-.925-.71-.694-1.066-1.619-1.066-3.122 0-1.156.237-2.312 1.066-3.237.592-.694 1.658-.925 2.96-.925h1.896v1.734h-1.895c-.71 0-1.066.116-1.54.463-.355.346-.592 1.04-.592 1.85 0 .924.119 1.502.592 1.965.355.347.83.462 1.421.462h.83l2.723-6.358h1.184L40.768.028H37.69c-1.302 0-2.368.232-3.316.695V.029h-5.21v.694C28.57.26 27.86.029 26.913.029H7.845l-1.303 2.89L5.24.03H.03l1.658 1.619h2.368L6.07 5.925l.71.694 2.133-5.087h3.316V9.74h-2.014V3.38L8.201 8.007l3.434 3.353h13.62l.118-3.006zm5.448-6.821h2.013V9.74H30.82V1.53zM20.399 3.266H15.78V4.77h4.5v1.619h-4.5v1.618H20.4v1.735h-6.632V1.53H20.4v1.735zm3.316 6.359h-2.013V1.416h4.5c1.066 0 1.776 0 2.368.347.593.347.948.925.948 1.85 0 1.272-.83 1.965-1.421 2.197.473.115.829.462.947.693.237.463.355.81.355 1.503v1.619h-2.013v-1.04c0-.463 0-1.157-.355-1.62-.119-.23-.474-.23-1.184-.23h-2.132v2.89z" transform="translate(-950 -2007) translate(0 1980) translate(950 27.4) translate(11.356)"/>
                    </g>
                </g>
            </g>
        </g>
    </g>
</svg>
