<svg xmlns="http://www.w3.org/2000/svg" width="22" height="24" viewBox="0 0 22 24">
    <g fill="none" fill-rule="evenodd">
        <g fill="#0072BC" fill-rule="nonzero">
            <g>
                <path d="M20.302 5.587L11.327.523c-.204-.114-.45-.114-.654 0L1.698 5.587c-.548.308-.89.89-.89 1.516v3.052c0 4.459 2.268 8.546 6.065 10.934l3.184 2.002c.286.18.614.27.942.27.328 0 .655-.09.941-.27l3.185-2.002c3.797-2.388 6.064-6.475 6.064-10.934V7.103c.003-.626-.338-1.208-.887-1.516zm-.432 4.568c0 4.008-2.038 7.682-5.451 9.83l-3.185 2.001c-.143.09-.329.09-.472 0l-3.184-2.002c-3.413-2.145-5.452-5.82-5.452-9.829V7.103c0-.157.085-.302.223-.38L11 1.843l8.65 4.88c.137.078.222.223.222.38v3.052h-.002zm-4.33-1.294c.257.256.257.67 0 .927l-5.397 5.352c-.129.127-.298.192-.466.192-.169 0-.338-.065-.467-.192l-2.75-2.728c-.257-.255-.257-.67 0-.926.258-.256.676-.255.934 0l2.284 2.265 4.93-4.89c.256-.256.674-.256.932 0z" transform="translate(-883 -39) translate(883 39)"/>
            </g>
        </g>
    </g>
</svg>
