<svg xmlns="http://www.w3.org/2000/svg" width="47" height="29" viewBox="0 0 47 29">
    <g fill="none" fill-rule="evenodd">
        <g fill-rule="nonzero">
            <g>
                <g>
                    <path fill="#FFB600" d="M46.786 14.157c0 7.79-6.336 14.156-14.255 14.156-7.844 0-14.255-6.367-14.255-14.156C18.276 6.367 24.61 0 32.456 0c7.994 0 14.33 6.367 14.33 14.157z" transform="translate(-714 -2006) translate(0 1980) translate(714 26.4)"/>
                    <path fill="#F7981D" d="M32.53 0c7.845 0 14.256 6.367 14.256 14.157S40.45 28.313 32.531 28.313c-7.844 0-14.255-6.367-14.255-14.156" transform="translate(-714 -2006) translate(0 1980) translate(714 26.4)"/>
                    <path fill="#FF8500" d="M32.896 0c7.643 0 13.89 6.367 13.89 14.157s-6.173 14.156-13.89 14.156" transform="translate(-714 -2006) translate(0 1980) translate(714 26.4)"/>
                    <path fill="#FF5050" d="M13.78 0C6.19.075 0 6.367 0 14.157s6.19 14.156 13.926 14.156c3.611 0 6.853-1.423 9.358-3.67.516-.45.958-.974 1.4-1.498h-2.873c-.369-.45-.737-.974-1.032-1.423h4.937c.295-.45.59-.974.81-1.498H19.97c-.221-.45-.442-.974-.59-1.498h7.663c.442-1.424.737-2.922.737-4.495 0-1.048-.147-2.022-.295-2.996h-8.547c.074-.524.221-.973.368-1.498h7.664c-.148-.524-.369-1.048-.59-1.498h-6.484c.221-.524.516-.973.81-1.498h4.937c-.294-.524-.663-1.048-1.105-1.498h-2.726c.442-.524.884-.974 1.4-1.423C20.779 1.498 17.463.15 13.853.15c0-.15 0-.15-.074-.15z" transform="translate(-714 -2006) translate(0 1980) translate(714 26.4)"/>
                    <path fill="#E52836" d="M0 14.446c0 7.63 6.19 13.867 13.926 13.867 3.611 0 6.853-1.394 9.358-3.595.516-.44.958-.954 1.4-1.468h-2.873c-.369-.44-.737-.953-1.032-1.394h4.937c.295-.44.59-.953.81-1.467H19.97c-.221-.44-.442-.954-.59-1.467h7.663c.442-1.394.737-2.862.737-4.403 0-1.027-.147-1.98-.295-2.934h-8.547c.074-.514.221-.954.368-1.468h7.664c-.148-.513-.369-1.027-.59-1.467h-6.484c.221-.514.516-.954.81-1.467h4.937c-.294-.514-.663-1.028-1.105-1.468h-2.726c.442-.513.884-.954 1.4-1.394C20.779 2.047 17.463.726 13.853.726h-.074" transform="translate(-714 -2006) translate(0 1980) translate(714 26.4)"/>
                    <path fill="#CB2026" d="M14.036 28.313c3.582 0 6.798-1.394 9.284-3.595.512-.44.95-.954 1.389-1.468h-2.851c-.366-.44-.731-.953-1.024-1.394h4.898c.293-.44.585-.953.804-1.467H20.03c-.219-.44-.438-.954-.585-1.467h7.603c.439-1.394.731-2.862.731-4.403 0-1.027-.146-1.98-.292-2.934h-8.48c.073-.514.22-.954.365-1.468h7.603c-.146-.513-.365-1.027-.585-1.467h-6.433c.22-.514.512-.954.804-1.467h4.898c-.292-.514-.658-1.028-1.096-1.468h-2.705c.438-.513.877-.954 1.389-1.394C20.834 2.047 17.545.726 13.963.726h-.073" transform="translate(-714 -2006) translate(0 1980) translate(714 26.4)"/>
                    <g fill="#FFF">
                        <path d="M17.582 7.73l.22-1.341c-.073 0-.22.078-.368.078-.516 0-.59-.315-.516-.473l.442-2.76h.811l.222-1.499h-.738l.148-.946h-1.475s-.884 5.205-.884 5.836c0 .947.516 1.341 1.18 1.341.442 0 .81-.158.958-.237zM18.098 5.206c0 2.208 1.4 2.76 2.58 2.76 1.106 0 1.548-.237 1.548-.237l.295-1.498s-.811.394-1.548.394c-1.622 0-1.327-1.262-1.327-1.262h3.022s.221-1.025.221-1.42c0-1.025-.516-2.287-2.138-2.287-1.548-.157-2.653 1.578-2.653 3.55zm2.58-2.288c.81 0 .663 1.026.663 1.104H19.72c0-.078.148-1.104.959-1.104zM30.04 7.73l.295-1.736s-.737.395-1.253.395c-1.032 0-1.475-.868-1.475-1.814 0-1.893.885-2.919 1.917-2.919.737 0 1.327.474 1.327.474l.221-1.657S30.187.08 29.376.08c-1.695 0-3.39 1.577-3.39 4.574 0 1.972.884 3.313 2.653 3.313.59 0 1.4-.237 1.4-.237zM9.473 1.499c-1.032 0-1.77.315-1.77.315l-.22 1.34s.663-.315 1.621-.315c.516 0 .958.08.958.552 0 .316-.073.395-.073.395h-.664c-1.253 0-2.654.552-2.654 2.366 0 1.42.885 1.735 1.401 1.735 1.032 0 1.474-.71 1.548-.71l-.074.631h1.327l.59-4.338c0-1.893-1.474-1.971-1.99-1.971zm.295 3.549c0 .236-.148 1.498-1.032 1.498-.443 0-.59-.394-.59-.63 0-.395.22-.947 1.327-.947.22.079.295.079.295.079zM12.864 7.887c.368 0 2.211.079 2.211-2.05 0-1.972-1.769-1.578-1.769-2.367 0-.394.295-.552.81-.552.222 0 1.033.08 1.033.08l.221-1.42s-.516-.158-1.4-.158c-1.106 0-2.212.473-2.212 2.05 0 1.814 1.843 1.657 1.843 2.366 0 .474-.516.553-.885.553-.663 0-1.327-.237-1.327-.237l-.22 1.42c.073.157.442.315 1.695.315zM42.277.237l-.295 2.13s-.59-.79-1.4-.79c-1.327 0-2.507 1.736-2.507 3.786 0 1.262.59 2.603 1.843 2.603.885 0 1.4-.631 1.4-.631l-.073.552h1.474L43.825.315 42.277.237zm-.663 4.18c0 .867-.369 1.972-1.18 1.972-.516 0-.81-.474-.81-1.262 0-1.262.515-2.051 1.179-2.051.516 0 .81.394.81 1.34zM1.437 7.808L2.322 2.13 2.47 7.808 3.502 7.808 5.418 2.13 4.607 7.808 6.155 7.808 7.335.237 4.902.237 3.428 4.89 3.354.237 1.216.237.037 7.808zM24.29 7.808c.442-2.602.516-4.732 1.548-4.338.147-1.025.369-1.42.516-1.814h-.295c-.663 0-1.18.947-1.18.947l.148-.868h-1.4l-.959 6.152h1.622v-.079zM33.43 1.499c-1.031 0-1.768.315-1.768.315l-.221 1.34s.663-.315 1.621-.315c.516 0 .959.08.959.552 0 .316-.074.395-.074.395h-.664c-1.253 0-2.653.552-2.653 2.366 0 1.42.884 1.735 1.4 1.735 1.032 0 1.475-.71 1.548-.71l-.073.631h1.327l.59-4.338C35.494 1.577 33.946 1.5 33.43 1.5zm.37 3.549c0 .236-.148 1.498-1.033 1.498-.442 0-.59-.394-.59-.63 0-.395.222-.947 1.328-.947.22.079.22.079.295.079zM36.674 7.808c.443-2.602.517-4.732 1.549-4.338.147-1.025.368-1.42.516-1.814h-.295c-.664 0-1.18.947-1.18.947l.148-.868H36.01l-.958 6.152h1.621v-.079z" transform="translate(-714 -2006) translate(0 1980) translate(714 26.4) translate(1.462 10.164)"/>
                    </g>
                    <g fill="#DCE5E5">
                        <path d="M15.296 6.625c0 .947.516 1.341 1.18 1.341.516 0 .958-.158 1.106-.237l.22-1.34c-.073 0-.22.078-.368.078-.516 0-.59-.315-.516-.473l.442-2.76h.811l.222-1.499h-.738l.148-.946M18.835 5.206c0 2.208.663 2.76 1.843 2.76 1.106 0 1.548-.237 1.548-.237l.295-1.498s-.811.394-1.548.394c-1.622 0-1.327-1.262-1.327-1.262h3.022s.221-1.025.221-1.42c0-1.025-.516-2.287-2.138-2.287-1.548-.157-1.916 1.578-1.916 3.55zm1.843-2.288c.81 0 .958 1.026.958 1.104H19.72c0-.078.148-1.104.959-1.104zM30.04 7.73l.295-1.736s-.737.395-1.253.395c-1.032 0-1.475-.868-1.475-1.814 0-1.893.885-2.919 1.917-2.919.737 0 1.327.474 1.327.474l.221-1.657S30.187.08 29.376.08c-1.695 0-2.653 1.577-2.653 4.574 0 1.972.147 3.313 1.916 3.313.59 0 1.4-.237 1.4-.237zM7.482 3.234s.664-.316 1.622-.316c.516 0 .958.08.958.552 0 .316-.073.395-.073.395h-.664c-1.253 0-2.654.552-2.654 2.366 0 1.42.885 1.735 1.401 1.735 1.032 0 1.474-.71 1.548-.71l-.074.631h1.327l.59-4.338c0-1.814-1.474-1.893-2.064-1.893m1.106 3.392c0 .236-.885 1.498-1.77 1.498-.442 0-.59-.394-.59-.63 0-.395.222-.947 1.328-.947.22.079 1.032.079 1.032.079zM11.242 7.73s.442.157 1.695.157c.369 0 2.212.079 2.212-2.05 0-1.972-1.77-1.578-1.77-2.367 0-.394.296-.552.812-.552.22 0 1.032.08 1.032.08l.22-1.42s-.515-.158-1.4-.158c-1.106 0-1.474.473-1.474 2.05 0 1.814 1.106 1.657 1.106 2.366 0 .474-.516.553-.885.553M41.982 2.366s-.59-.789-1.4-.789c-1.327 0-1.77 1.736-1.77 3.786 0 1.262-.147 2.603 1.106 2.603.885 0 1.4-.631 1.4-.631l-.073.552h1.474L43.825.315m-1.917 4.102c0 .867-.663 1.972-1.474 1.972-.516 0-.81-.474-.81-1.262 0-1.262.515-2.051 1.179-2.051.516 0 1.105.394 1.105 1.34zM1.437 7.808L2.322 2.13 2.47 7.808 3.502 7.808 5.418 2.13 4.607 7.808 6.155 7.808 7.335.237 5.492.237 3.428 4.89 3.354.237 2.543.237.037 7.808zM22.742 7.808h1.548c.442-2.602.516-4.732 1.548-4.338.147-1.025.369-1.42.516-1.814h-.295c-.663 0-1.18.947-1.18.947l.148-.868M31.44 3.234s.664-.316 1.622-.316c.516 0 .959.08.959.552 0 .316-.074.395-.074.395h-.664c-1.253 0-2.653.552-2.653 2.366 0 1.42.884 1.735 1.4 1.735 1.032 0 1.475-.71 1.548-.71l-.073.631h1.327l.59-4.338c0-1.814-1.475-1.893-2.065-1.893m1.106 3.392c0 .236-.885 1.498-1.77 1.498-.442 0-.589-.394-.589-.63 0-.395.221-.947 1.327-.947.295.079 1.032.079 1.032.079zM35.126 7.808h1.548c.443-2.602.517-4.732 1.549-4.338.147-1.025.368-1.42.516-1.814h-.295c-.664 0-1.18.947-1.18.947l.148-.868" transform="translate(-714 -2006) translate(0 1980) translate(714 26.4) translate(1.462 10.164)"/>
                    </g>
                </g>
            </g>
        </g>
    </g>
</svg>
