<svg xmlns="http://www.w3.org/2000/svg" width="47" height="29" viewBox="0 0 47 29">
    <g fill="none" fill-rule="evenodd">
        <g fill-rule="nonzero">
            <g>
                <g>
                    <path fill="#07A9E2" d="M23.393 24.507c2.822-2.525 4.604-6.238 4.604-10.397s-1.782-7.798-4.604-10.397C20.943 1.485 17.6.074 14.036.074 6.312.074 0 6.387 0 14.11c0 7.724 6.312 13.962 14.036 13.962 3.564.074 6.906-1.337 9.357-3.565z" transform="translate(-787 -2006) translate(0 1980) translate(787 26.4)"/>
                    <path fill="#009DDD" d="M0 14.11c0 7.724 6.312 13.962 14.036 13.962 3.639 0 6.906-1.337 9.357-3.64 2.822-2.524 4.604-6.237 4.604-10.396 0-4.159-1.782-7.724-4.604-10.323C20.943 1.485 17.6.074 14.036.074" transform="translate(-787 -2006) translate(0 1980) translate(787 26.4)"/>
                    <path fill="#0284CC" d="M23.393 3.713C20.943 1.485 17.6.074 14.036.074h-.669C8.986 3.268 6.164 8.392 6.164 14.11s2.822 10.843 7.13 13.962h.668c3.638 0 6.906-1.337 9.357-3.64 2.822-2.524 4.604-6.237 4.604-10.396 0-4.159-1.708-7.724-4.53-10.323z" transform="translate(-787 -2006) translate(0 1980) translate(787 26.4)"/>
                    <path fill="#FF2957" d="M32.825.074c-3.64 0-6.907 1.337-9.432 3.64-.52.445-.965.965-1.411 1.484h2.822c.371.446.743.966 1.04 1.486h-4.976c-.297.52-.594.965-.817 1.485h6.61c.222.52.445.965.594 1.485H19.53c-.148.52-.297.966-.445 1.486H27.7c.223.965.297 1.93.297 2.97 0 1.56-.222 3.045-.742 4.456H19.53c.149.52.372.965.594 1.485h6.61c-.223.52-.52 1.04-.817 1.485h-4.976c.297.52.669 1.04 1.04 1.486h2.822c-.446.52-.891 1.04-1.411 1.485 2.525 2.228 5.793 3.639 9.432 3.639 7.723 0 13.961-6.238 13.961-13.962 0-7.797-6.238-14.11-13.961-14.11z" transform="translate(-787 -2006) translate(0 1980) translate(787 26.4)"/>
                    <path fill="#ED1C2E" d="M32.825.074c-3.64 0-6.907 1.337-9.432 3.64-.52.445-.965.965-1.411 1.484h2.822c.371.446.743.966 1.04 1.486h-4.976c-.297.52-.594.965-.817 1.485h6.61c.222.52.445.965.594 1.485H19.53c-.148.52-.297.966-.445 1.486H27.7c.223.965.297 1.93.297 2.97 0 1.56-.222 3.045-.742 4.456H19.53c.149.52.372.965.594 1.485h6.61c-.223.52-.52 1.04-.817 1.485h-4.976c.297.52.669 1.04 1.04 1.486h2.822c-.446.52-.891 1.04-1.411 1.485 2.525 2.228 5.793 3.639 9.432 3.639 7.723 0 13.961-6.238 13.961-13.962" transform="translate(-787 -2006) translate(0 1980) translate(787 26.4)"/>
                    <path fill="#0466B5" d="M23.393 24.507c2.822-2.525 4.604-6.238 4.604-10.397s-1.782-7.798-4.604-10.397v20.794z" transform="translate(-787 -2006) translate(0 1980) translate(787 26.4)"/>
                    <path fill="#FFF" d="M41.959 17.232c0-.262.261-.523.522-.523s.523.261.523.523c0 .26-.262.522-.523.522-.26 0-.522-.261-.522-.522zm.522.435c.261 0 .348-.174.348-.435 0-.262-.174-.349-.348-.349-.26 0-.435.175-.435.349s.261.435.435.435zm0-.261h-.087v-.436h.261l.087.088c0 .087 0 .087-.087.087l.087.174h-.087l-.087-.174h-.087v.26zm0-.261h.087v-.087h-.087v.087z" transform="translate(-787 -2006) translate(0 1980) translate(787 26.4)"/>
                    <path fill="#D1094B" d="M23.393 3.713c-.52.446-.965.966-1.411 1.485h2.822c.371.446.743.966 1.04 1.486h-4.976c-.297.52-.594.965-.817 1.485h6.61c.222.52.445.965.594 1.485H19.53c-.148.52-.297.966-.445 1.486H27.7c.223.965.297 1.93.297 2.97 0 1.56-.222 3.045-.742 4.456H19.53c.149.52.372.965.594 1.485h6.61c-.223.52-.52 1.04-.817 1.485h-4.976c.297.52.669 1.04 1.04 1.486h2.822c-.446.52-.891 1.04-1.411 1.485 2.525 2.228 5.793 3.639 9.432 3.639h.668c4.307-3.12 7.13-8.243 7.13-13.962 0-5.718-2.823-10.842-7.13-13.961h-.668c-3.64-.149-6.907 1.262-9.432 3.49z" transform="translate(-787 -2006) translate(0 1980) translate(787 26.4)"/>
                    <path fill="#FFF" d="M12.253 17.6L10.471 17.6 11.511 12.179 9.134 17.6 7.575 17.6 7.278 12.179 6.238 17.6 4.679 17.6 6.015 10.471 8.763 10.471 8.912 14.927 10.842 10.471 13.665 10.471z" transform="translate(-787 -2006) translate(0 1980) translate(787 26.4)"/>
                    <g fill="#DCE5E5">
                        <path d="M.149 3.992l1.04-2.303L.37 5.997c.075.371.149.817.297 1.188h1.189L3.193.055H.594C.297 1.17.074 2.433.074 3.696c.075.074.075.148.075.297zM21.314 7.036c-.52.149-.817.223-1.263.223-.891 0-1.337-.445-1.337-1.262 0-.149 0-.297.075-.52l.074-.594.074-.446.817-4.381h1.708l-.223 1.336h.892l-.223 1.337h-.891l-.446 2.377c0 .074-.074.222-.074.222 0 .297.223.446.594.446.223 0 .371 0 .445-.074l-.222 1.336zM26.438 1.392c-.149-.074-.149-.074-.223-.074-.074 0-.148 0-.148-.074h-.223c-.594 0-.966.223-1.486.965l.149-.89h-1.56l-1.04 5.792h1.783c.594-3.565.891-4.159 1.708-4.159h.223l.223.074.594-1.634zM14.407 3.175c0 .742.446 1.262 1.337 1.56.743.296.817.37.817.668 0 .371-.297.52-1.04.52-.52 0-1.04-.075-1.56-.223l-.222 1.336h.074l.297.075h.446c.445.074.742.074.965.074 1.857 0 2.748-.594 2.748-1.93 0-.818-.371-1.263-1.263-1.635-.742-.297-.817-.371-.817-.594 0-.297.298-.445.892-.445.297 0 .817 0 1.262.074l.223-1.337c-.446-.074-1.114-.074-1.56-.074-1.93 0-2.599.891-2.599 1.93zM7.5 7.11H6.09v-.593c-.446.445-1.04.668-1.857.668-.965 0-1.56-.668-1.56-1.56 0-1.41 1.114-2.227 3.045-2.227h.743c.074-.223.074-.297.074-.372 0-.371-.297-.52-1.114-.52-.52 0-1.04.075-1.41.149l-.224.074H3.64l.223-1.262c.89-.223 1.41-.297 2.08-.297 1.484 0 2.301.594 2.301 1.708 0 .297 0 .52-.148 1.188l-.372 2.08-.074.37-.074.298v.222l-.074.075zM6.239 4.513h-.371c-.966 0-1.485.297-1.485.89 0 .372.222.595.594.595.742 0 1.262-.594 1.262-1.485zM13.219 6.962c-.594.149-1.188.223-1.782.223-1.931 0-2.97-.891-2.97-2.6 0-2.004 1.262-3.415 3.044-3.415 1.41 0 2.302.817 2.302 2.079 0 .446-.074.817-.223 1.411H10.1v.223c0 .668.52 1.04 1.485 1.04.668 0 1.188-.075 1.782-.372l-.148 1.411zm-.891-3.416V3.25c0-.446-.297-.743-.817-.743s-.966.372-1.114 1.04h1.93z" transform="translate(-787 -2006) translate(0 1980) translate(787 26.4) translate(10.397 10.49)"/>
                    </g>
                    <g fill="#FFF">
                        <path d="M6.238 3.398c-.297 1.93-1.634 2.747-3.416 2.747-1.93 0-2.748-1.188-2.748-2.673C.074 1.467 1.411.056 3.49.056c1.783 0 2.748 1.188 2.748 2.599v.743zm-1.856-.743c0-.594-.223-1.114-.966-1.114-.891 0-1.41 1.04-1.41 2.005 0 .743.37 1.263.965 1.263.37 0 1.188-.52 1.336-1.411.075-.297.075-.52.075-.743z" transform="translate(-787 -2006) translate(0 1980) translate(787 26.4) translate(36.018 11.604)"/>
                        <path d="M.149 4.14c.074-.52.148-1.114.148-1.634v-.148C.223 2.729.15 3.1.15 3.546c-.075.149-.075.371 0 .594z" transform="translate(-787 -2006) translate(0 1980) translate(787 26.4) translate(36.018 11.604)"/>
                    </g>
                </g>
            </g>
        </g>
    </g>
</svg>
