<svg xmlns="http://www.w3.org/2000/svg" width="68" height="19" viewBox="0 0 68 19">
    <g fill="none" fill-rule="evenodd">
        <g fill-rule="nonzero">
            <g>
                <g>
                    <path fill="#139AD6" d="M45.862.803H40.65c-.306 0-.613.304-.766.608L37.736 14.8c0 .304.153.456.46.456h2.76c.307 0 .46-.152.46-.456l.613-3.804c0-.304.307-.608.767-.608h1.686c3.527 0 5.52-1.673 5.98-5.02.307-1.37 0-2.586-.613-3.347-.92-.76-2.3-1.217-3.987-1.217m.614 5.02c-.307 1.826-1.687 1.826-3.067 1.826h-.92l.613-3.5c0-.151.154-.304.46-.304h.307c.92 0 1.84 0 2.3.609.307.152.307.608.307 1.37" transform="translate(-621 -2011) translate(0 1980) translate(621 31.4)"/>
                    <g fill="#263B80">
                        <path d="M8.22.038H2.97c-.308 0-.617.3-.771.6L.039 13.851c0 .3.154.45.463.45h2.47c.308 0 .617-.3.771-.6l.618-3.603c0-.3.308-.6.771-.6H6.83c3.55 0 5.557-1.653 6.02-4.956.309-1.351 0-2.552-.617-3.303C11.306.488 10.072.038 8.219.038m.618 4.955C8.528 6.794 7.139 6.794 5.75 6.794h-.772l.617-3.453c0-.15.155-.3.463-.3h.31c.925 0 1.851 0 2.314.6.155.15.31.6.155 1.352M24.118 4.842h-2.47c-.154 0-.463.15-.463.3l-.154.751-.155-.3c-.617-.75-1.697-1.05-2.932-1.05-2.779 0-5.248 2.101-5.711 4.954-.31 1.502.154 2.853.926 3.754.772.9 1.852 1.201 3.241 1.201 2.316 0 3.55-1.351 3.55-1.351l-.154.75c0 .3.154.45.463.45h2.315c.31 0 .618-.3.772-.6l1.39-8.408c-.155-.15-.464-.45-.618-.45m-3.55 4.804c-.309 1.352-1.39 2.403-2.933 2.403-.772 0-1.39-.3-1.698-.6-.309-.451-.463-1.052-.463-1.803.154-1.351 1.39-2.402 2.778-2.402.772 0 1.235.3 1.698.6.463.45.618 1.202.618 1.802" transform="translate(-621 -2011) translate(0 1980) translate(621 31.4)"/>
                    </g>
                    <path fill="#139AD6" d="M61.233 5.11h-2.361c-.148 0-.443.145-.443.291l-.147.73-.148-.292c-.59-.73-1.623-1.022-2.803-1.022-2.656 0-5.016 2.044-5.46 4.818-.294 1.46.148 2.773.886 3.65.738.875 1.77 1.167 3.099 1.167 2.213 0 3.393-1.314 3.393-1.314l-.148.73c0 .292.148.438.443.438h2.213c.295 0 .59-.292.738-.584l1.328-8.175c-.148-.146-.295-.438-.59-.438m-3.394 4.672c-.295 1.314-1.328 2.335-2.803 2.335-.738 0-1.328-.292-1.623-.584-.295-.437-.443-1.021-.443-1.751.148-1.314 1.328-2.336 2.656-2.336.738 0 1.18.292 1.623.584.59.438.738 1.168.59 1.752" transform="translate(-621 -2011) translate(0 1980) translate(621 31.4)"/>
                    <path fill="#263B80" d="M37.353 5.62h-2.574c-.303 0-.455.148-.606.296l-3.332 5.02-1.514-4.725c-.151-.295-.303-.443-.757-.443h-2.423c-.303 0-.454.295-.454.59l2.725 7.826-2.574 3.544c-.151.296 0 .739.303.739h2.423c.303 0 .454-.148.606-.296l8.328-11.665c.455-.443.152-.886-.151-.886" transform="translate(-621 -2011) translate(0 1980) translate(621 31.4)"/>
                    <path fill="#139AD6" d="M64.009 1.165L61.823 14.8c0 .303.156.455.468.455h2.186c.312 0 .624-.303.78-.606l2.186-13.332c0-.303-.156-.455-.468-.455h-2.498c-.156-.151-.312 0-.468.303" transform="translate(-621 -2011) translate(0 1980) translate(621 31.4)"/>
                </g>
            </g>
        </g>
    </g>
</svg>
