<svg width="38" height="15" viewBox="0 0 38 15" fill="none" xmlns="http://www.w3.org/2000/svg">
<path d="M16.83 6.58219V11.0592H15.4086V0.000809071H19.1764C19.6263 -0.00900574 20.0737 0.0705613 20.4926 0.234901C20.9115 0.39924 21.2936 0.645083 21.6169 0.958184C22.2782 1.55327 22.6498 2.40427 22.6359 3.29227C22.6456 3.734 22.5596 4.17259 22.3837 4.5779C22.2077 4.98321 21.9462 5.34563 21.6169 5.64023C20.957 6.26923 20.143 6.58373 19.1764 6.58219H16.83ZM16.83 1.3621V5.22398H19.2119C19.7407 5.23939 20.2494 5.03281 20.6179 4.65202C21.364 3.92743 21.3825 2.73264 20.6549 1.98648L20.6179 1.94948C20.4384 1.75766 20.2203 1.60612 19.9779 1.50486C19.7355 1.40361 19.4744 1.35495 19.2119 1.3621H16.83ZM25.9104 3.24602C26.9618 3.24602 27.7897 3.5266 28.3971 4.08777C29.0045 4.64893 29.3082 5.41977 29.3082 6.39564V11.0607H27.95V10.0093H27.8884C27.2994 10.8742 26.5163 11.3074 25.5404 11.3074C24.7064 11.3074 24.0095 11.0607 23.4484 10.5659C23.1793 10.3388 22.9641 10.0548 22.8185 9.73422C22.6729 9.41369 22.6005 9.06476 22.6066 8.71277C22.6066 7.9296 22.9026 7.30677 23.4946 6.84427C24.0866 6.38177 24.8759 6.14898 25.8657 6.14898C26.709 6.14898 27.4043 6.30314 27.95 6.61148V6.28618C27.9518 6.04625 27.8999 5.80895 27.7983 5.59158C27.6967 5.37422 27.5479 5.18227 27.3627 5.02973C26.9868 4.69044 26.4968 4.50545 25.9906 4.51173C25.1982 4.51173 24.5692 4.84627 24.1067 5.51535L22.8564 4.72756C23.5424 3.73935 24.5614 3.24602 25.9104 3.24602ZM24.0712 8.7436C24.0705 8.92426 24.1128 9.10249 24.1945 9.2636C24.2763 9.4247 24.3952 9.56405 24.5414 9.67014C24.8559 9.91681 25.2459 10.0494 25.6452 10.0401C26.245 10.0386 26.8198 9.79973 27.2439 9.37568C27.7142 8.93168 27.95 8.41368 27.95 7.81552C27.506 7.46248 26.8894 7.28518 26.0969 7.28518C25.5204 7.28518 25.0378 7.42393 24.6524 7.70298C24.2654 7.98818 24.0712 8.33198 24.0712 8.7436ZM37.1091 3.49268L32.3654 14.3969H30.8992L32.6598 10.5813L29.5379 3.49268H31.0827L33.3382 8.9286H33.369L35.5628 3.49268H37.1091Z" fill="#5F6368"/>
<path d="M12.4547 6.89668C12.4547 6.46347 12.4193 6.03181 12.3453 5.60477H6.35281V8.05139H9.78456C9.71452 8.44217 9.56597 8.8147 9.34789 9.14645C9.12982 9.4782 8.84674 9.76229 8.51577 9.98156V11.571H10.5646C11.7641 10.4672 12.4547 8.83147 12.4547 6.89668Z" fill="#4285F4"/>
<path d="M6.35281 13.1065C8.06714 13.1065 9.51168 12.5438 10.5646 11.5726L8.51577 9.9831C7.94535 10.3701 7.21152 10.5905 6.35281 10.5905C4.69552 10.5905 3.28952 9.47281 2.78539 7.96814H0.676392V9.60539C1.20494 10.6579 2.01571 11.5427 3.01811 12.1609C4.02051 12.7792 5.17507 13.1066 6.35281 13.1065Z" fill="#34A853"/>
<path d="M2.78693 7.96815C2.52024 7.17916 2.52024 6.32439 2.78693 5.5354V3.89969H0.676384C0.231623 4.78519 0 5.76239 0 6.75332C0 7.74424 0.231623 8.72144 0.676384 9.60694L2.78693 7.96815Z" fill="#FBBC04"/>
<path d="M6.35281 2.91455C7.2588 2.90007 8.13418 3.24225 8.79018 3.8673L10.6047 2.0543C9.454 0.974674 7.93061 0.381448 6.35281 0.398553C5.17507 0.398494 4.02051 0.725884 3.01811 1.34415C2.01571 1.96242 1.20494 2.84721 0.676392 3.89968L2.78693 5.53693C3.28952 4.03072 4.69552 2.91455 6.35281 2.91455Z" fill="#EA4335"/>
</svg>
