<svg width="37" height="16" viewBox="0 0 37 16" fill="none" xmlns="http://www.w3.org/2000/svg">
<path d="M4.93921 2.85825C5.63296 2.91683 6.32671 2.50675 6.76146 1.98412C7.1885 1.45071 7.47062 0.727667 7.40125 0C6.78304 0.0292917 6.02608 0.410083 5.59287 0.945042C5.19204 1.40137 4.85133 2.15371 4.93921 2.85825ZM3.22179 12.4042C3.98954 12.375 4.29171 11.9001 5.21671 11.9001C6.14787 11.9001 6.41921 12.4042 7.22858 12.3935C8.06725 12.3765 8.59296 11.6319 9.10633 10.8672C9.68908 9.99925 9.93266 9.15904 9.945 9.11279C9.92804 9.09583 8.32625 8.473 8.30775 6.59525C8.29079 5.02275 9.575 4.27658 9.6305 4.23033C8.90746 3.13883 7.7805 3.02167 7.38737 2.99238L7.39046 2.99392C6.38375 2.93379 5.5235 3.57358 5.04866 3.57358C4.56304 3.57358 3.83537 3.02167 3.03679 3.03862C2.00387 3.05712 1.04341 3.65067 0.517705 4.59417C-0.56917 6.48887 0.234039 9.28854 1.28546 10.8318C1.80037 11.5933 2.41241 12.4335 3.22179 12.4042ZM21.9685 6.45496H23.5471C23.6797 5.75042 24.321 5.28638 25.2013 5.28638C26.2712 5.28638 26.8725 5.7905 26.8725 6.72321V7.35683L24.688 7.4925C22.6591 7.61583 21.5599 8.46067 21.5599 9.92679C21.5661 11.4053 22.6977 12.3904 24.3226 12.3919C25.4218 12.3919 26.4393 11.8292 26.9002 10.932H26.9342V12.3056H28.5529V6.61375C28.5529 4.96571 27.2517 3.89733 25.2522 3.89733C23.396 3.89733 22.0224 4.97496 21.9685 6.45496ZM26.8787 9.20837C26.8787 10.2767 25.9814 11.0383 24.7974 11.0383C23.8662 11.0383 23.2712 10.5805 23.2712 9.88825C23.2712 9.16521 23.8431 8.7505 24.9362 8.68575L26.8787 8.56242V9.20837ZM13.1933 0.867959V12.304H14.9446V8.39592H17.3666C19.5804 8.39592 21.1298 6.85271 21.1298 4.62346C21.1298 2.39421 19.6051 0.867959 17.4236 0.867959H13.1933ZM19.3507 4.62963C19.3507 6.07263 18.4843 6.90667 16.9565 6.90667H14.9446V2.36492H16.9627C18.4827 2.36492 19.3507 3.18508 19.3507 4.62963Z" fill="black"/>
<path d="M33.1255 10.7608L31.0674 4.00834H29.2405L32.2005 12.3349L32.0386 12.839C31.7719 13.6946 31.3387 14.0307 30.5648 14.0307C30.426 14.0307 30.1609 14.0138 30.0499 14.0014V15.3751C30.1547 15.3997 30.5894 15.4167 30.722 15.4167L30.7205 15.4136C32.4256 15.4136 33.2288 14.7507 33.9302 12.7496L36.9997 4.00834H35.2191L33.1609 10.7608H33.1255Z" fill="black"/>
</svg>
